# Blender v2.74 (sub 0) OBJ File: 'spaceship.blend'
# www.blender.org
v 0.264917 4.046141 1.635401
v 0.219809 2.545672 9.667445
v 0.813374 2.299706 1.635401
v 0.296228 2.344877 9.809935
v 0.573363 2.299705 5.887773
v 0.169425 3.366142 7.155457
v 0.529459 2.299705 7.156292
v 0.761911 3.268679 1.635401
v 0.264325 2.449340 9.970405
v 0.573363 3.057790 5.604719
v 0.529459 3.054093 6.726898
v 0.229450 3.820181 4.087755
v 0.697668 2.299705 3.685418
v 0.671014 3.165349 4.701539
v 0.797452 2.599499 1.635401
v 0.296227 2.385117 9.871059
v 0.573363 2.534252 5.800198
v 0.529459 2.533108 7.023440
v 0.689421 2.567530 3.999799
v -0.041842 3.347264 7.216110
v 0.168506 3.592449 6.160583
v 0.527039 3.043501 6.760705
v 0.572422 3.057435 5.606518
v 0.229049 3.820295 4.087545
v 0.671022 3.165347 4.701426
v 0.001490 2.590729 9.666460
v 0.047007 2.590729 9.666460
v 0.163559 2.590729 9.666460
v 0.012619 2.344878 9.809935
v 0.069265 2.344878 9.809935
v 0.196946 2.344878 9.809935
v 0.134275 2.299706 1.635401
v 0.312577 2.299706 1.635401
v 0.561914 2.299706 1.635401
v 0.381906 2.299705 5.887772
v 0.192571 2.299705 5.887772
v 0.074272 2.299705 5.887772
v -0.026712 3.366598 7.156083
v -0.009397 3.366446 7.155874
v 0.078953 3.366294 7.155665
v 0.348978 2.299705 7.156292
v 0.170619 2.299705 7.156292
v 0.063296 2.299705 7.156292
v 0.154094 2.474938 10.007497
v 0.475134 2.299705 3.685418
v 0.254724 2.299705 3.685418
v 0.105348 2.299705 3.685417
v 0.196946 2.385117 9.871059
v 0.165587 3.346655 7.215274
v 0.012619 2.474939 10.007496
v 0.069265 2.474939 10.007496
v 0.012619 2.385118 9.871059
v 0.069265 2.385118 9.871059
v 3.445688 2.394845 0.253628
v 3.352004 2.394846 1.913457
v 3.334867 2.394845 2.408598
v 3.400524 2.394846 1.053812
v 3.439472 2.511864 0.253628
v 3.352004 2.486396 1.879274
v 3.334867 2.485950 2.356742
v 3.397305 2.499386 1.176524
v -0.037565 2.590729 9.666460
v -0.037565 4.047657 1.635401
v -0.340047 4.046141 1.635401
v -0.294938 2.545672 9.667445
v -0.037565 2.344878 9.809935
v -0.037565 2.299706 1.635401
v -0.888504 2.299706 1.635401
v -0.371357 2.344877 9.809935
v -0.037565 2.299705 5.887772
v -0.648492 2.299705 5.887773
v -0.244555 3.366142 7.155457
v -0.604588 2.299705 7.156292
v -0.037565 3.366750 7.156292
v -0.037565 2.299705 7.156292
v -0.837041 3.268679 1.635401
v -0.339455 2.449340 9.970405
v -0.648492 3.057790 5.604719
v -0.604588 3.054093 6.726898
v -0.037565 3.862461 4.086899
v -0.037565 2.299705 3.685417
v -0.304580 3.820181 4.087755
v -0.772797 2.299705 3.685418
v -0.746144 3.165349 4.701539
v -0.037565 2.385118 9.871059
v -0.872581 2.599499 1.635401
v -0.371357 2.385117 9.871059
v -0.648492 2.534252 5.800198
v -0.604588 2.533108 7.023440
v -0.764551 2.567530 3.999799
v -0.033287 3.347264 7.216110
v -0.243635 3.592449 6.160583
v -0.037565 3.593057 6.161418
v -0.602169 3.043501 6.760705
v -0.647552 3.057435 5.606518
v -0.304179 3.820295 4.087545
v -0.746152 3.165347 4.701426
v -0.076619 2.590729 9.666460
v -0.122137 2.590729 9.666460
v -0.238689 2.590729 9.666460
v -0.087748 2.344878 9.809935
v -0.144395 2.344878 9.809935
v -0.272076 2.344878 9.809935
v -0.209404 2.299706 1.635401
v -0.387707 2.299706 1.635401
v -0.637044 2.299706 1.635401
v -0.457035 2.299705 5.887772
v -0.267701 2.299705 5.887772
v -0.149401 2.299705 5.887772
v -0.048417 3.366598 7.156083
v -0.065732 3.366446 7.155874
v -0.154082 3.366294 7.155665
v -0.424107 2.299705 7.156292
v -0.245749 2.299705 7.156292
v -0.138426 2.299705 7.156292
v -0.229223 2.474938 10.007497
v -0.550264 2.299705 3.685418
v -0.329853 2.299705 3.685418
v -0.180478 2.299705 3.685417
v -0.272076 2.385117 9.871059
v -0.037565 2.474939 10.007496
v -0.240717 3.346655 7.215274
v -0.087748 2.474939 10.007496
v -0.144395 2.474939 10.007496
v -0.087748 2.385118 9.871059
v -0.144395 2.385118 9.871059
v -3.520817 2.394845 0.253628
v -3.427133 2.394846 1.913457
v -3.409996 2.394845 2.408598
v -3.475653 2.394846 1.053812
v -3.514602 2.511864 0.253628
v -3.427133 2.486396 1.879274
v -3.409996 2.485950 2.356742
v -3.472434 2.499386 1.176524
vn -0.005000 -0.997100 -0.075300
vn 0.000000 1.000000 0.000000
vn -0.995000 -0.049300 -0.086600
vn -0.598600 -0.753300 -0.272400
vn -0.041200 -0.999000 -0.015400
vn -0.002300 -0.955500 -0.295100
vn 0.000000 0.999900 -0.017000
vn -0.019500 -0.999800 -0.001600
vn 0.010000 0.836600 -0.547600
vn -0.488600 -0.849600 -0.198400
vn -0.808800 -0.586400 -0.043700
vn -0.047600 -0.998600 -0.021500
vn -0.997500 -0.053000 -0.046300
vn 0.000000 0.835300 -0.549900
vn -0.999100 -0.020400 -0.035900
vn -0.997000 0.043800 -0.063500
vn -0.995300 -0.047800 -0.084000
vn -0.019000 -0.955300 -0.295000
vn -0.012000 -0.955400 -0.295100
vn -0.002300 -0.955400 -0.295200
vn 0.000000 0.835200 -0.549900
vn -0.997800 0.035400 -0.056300
vn -0.999200 -0.019700 -0.034600
vn -0.997000 -0.053000 -0.056300
vn -0.823900 -0.280300 -0.492500
vn -0.037200 0.999300 -0.002100
vn -0.036000 0.999400 -0.001200
vn 0.463900 0.024600 0.885500
vn -0.000000 0.000000 1.000000
vn 0.003800 0.973900 0.227000
vn 0.741600 0.652900 0.154200
vn 0.858100 0.490500 0.152000
vn 0.155000 0.981500 0.112400
vn 0.000000 -0.946900 -0.321500
vn 0.155400 -0.983500 -0.092900
vn 0.990600 0.114200 -0.075200
vn 0.297900 -0.921500 -0.249200
vn 0.041200 -0.999000 -0.015400
vn 0.605000 -0.760400 -0.236200
vn 0.019500 -0.999800 -0.001600
vn 0.000000 0.839800 -0.542900
vn 0.488600 -0.849600 -0.198400
vn 0.808800 -0.586400 -0.043700
vn 0.047600 -0.998600 -0.021500
vn 0.999600 0.003900 -0.029500
vn 0.999100 -0.020400 -0.035900
vn 0.992800 -0.041900 -0.112300
vn 0.953100 -0.273900 -0.129000
vn 0.019000 -0.955300 -0.295000
vn 0.000000 -0.955400 -0.295200
vn 0.000000 -0.955500 -0.295100
vn 0.997600 -0.024200 -0.064800
vn 0.999200 -0.019700 -0.034600
vn 0.998700 0.022500 -0.045300
vn 0.823900 -0.280300 -0.492500
vn 0.037200 0.999300 -0.002100
vn 0.036000 0.999400 -0.001200
vn -0.463900 0.024600 0.885500
vn -0.003800 0.973900 0.227000
vn -0.816500 0.576000 0.039100
vn -0.784200 0.613900 0.090400
vn -0.155000 0.981500 0.112400
vn -0.155400 -0.983500 -0.092900
vn -0.990600 0.114200 -0.075200
vn -0.297900 -0.921500 -0.249200
vn -0.605000 -0.760400 -0.236200
vn -0.761200 -0.620800 -0.187500
vn -0.841000 -0.537600 -0.061700
vn -0.999600 0.003900 -0.029500
vn -0.999100 -0.014600 -0.039100
vn -0.992800 -0.041900 -0.112300
vn -0.953100 -0.273900 -0.129000
vn 0.000000 -0.955400 -0.295400
vn -0.997600 -0.024200 -0.064800
vn -0.999300 -0.013400 -0.035900
vn -0.998700 0.022500 -0.045300
vn 0.816500 0.576000 0.039100
vn 0.784200 0.613900 0.090400
vn 0.003400 0.991700 0.128800
vn 0.005000 -0.997100 -0.075300
vn 0.995000 -0.049300 -0.086600
vn 0.598600 -0.753300 -0.272400
vn 0.002300 -0.955500 -0.295100
vn -0.010000 0.836600 -0.547600
vn 0.761200 -0.620800 -0.187500
vn 0.841000 -0.537600 -0.061700
vn 0.997500 -0.053000 -0.046300
vn 0.999100 -0.014600 -0.039100
vn 0.997000 0.043800 -0.063500
vn 0.995300 -0.047800 -0.084000
vn 0.012000 -0.955400 -0.295100
vn 0.002300 -0.955400 -0.295200
vn 0.997800 0.035400 -0.056300
vn 0.999300 -0.013400 -0.035900
vn 0.997000 -0.053000 -0.056300
vn -0.741600 0.652900 0.154200
vn -0.858100 0.490500 0.152000
vn -0.003400 0.991700 0.128800
s off
f 80//1 63//1 1//1
f 13//2 3//2 34//2
f 18//3 7//3 4//3
f 44//4 28//4 2//4
f 15//5 58//5 61//5
f 7//2 5//2 35//2
f 28//6 40//6 6//6
f 4//7 7//7 41//7
f 17//8 59//8 60//8
f 48//9 44//9 9//9
f 11//10 9//10 2//10
f 8//11 14//11 12//11
f 19//12 61//12 59//12
f 5//2 13//2 45//2
f 8//13 15//13 19//13
f 31//14 48//14 16//14
f 17//15 18//15 11//15
f 14//16 19//16 17//16
f 11//17 18//17 16//17
f 37//2 47//2 81//2
f 36//2 46//2 47//2
f 35//2 45//2 46//2
f 29//7 43//7 75//7
f 30//7 42//7 43//7
f 31//7 41//7 42//7
f 74//18 38//18 26//18
f 26//19 38//19 39//19
f 27//20 39//20 40//20
f 43//2 37//2 70//2
f 42//2 36//2 37//2
f 41//2 35//2 36//2
f 47//2 32//2 67//2
f 46//2 33//2 32//2
f 45//2 34//2 33//2
f 52//21 50//21 51//21
f 61//22 57//22 55//22
f 55//23 56//23 60//23
f 58//24 54//24 57//24
f 18//25 60//25 56//25
f 3//26 13//26 57//26
f 5//27 7//27 56//27
f 13//26 5//26 55//26
f 3//28 54//28 58//28
f 8//29 32//29 33//29
f 49//30 21//30 93//30
f 21//31 49//31 22//31
f 21//32 23//32 25//32
f 21//33 24//33 80//33
f 85//14 52//14 29//14
f 29//14 52//14 53//14
f 30//14 53//14 48//14
f 53//21 51//21 44//21
f 121//34 62//34 26//34
f 50//34 26//34 27//34
f 51//34 27//34 28//34
f 85//21 121//21 50//21
f 80//35 82//35 64//35
f 106//2 68//2 83//2
f 89//36 87//36 69//36
f 116//37 77//37 65//37
f 134//38 131//38 86//38
f 107//2 71//2 73//2
f 100//39 65//39 72//39
f 113//7 73//7 69//7
f 133//40 132//40 88//40
f 120//41 87//41 77//41
f 65//42 77//42 79//42
f 82//43 84//43 76//43
f 132//44 134//44 90//44
f 117//2 83//2 71//2
f 76//45 84//45 90//45
f 103//14 69//14 87//14
f 79//46 89//46 88//46
f 84//47 78//47 88//47
f 79//48 77//48 87//48
f 81//2 119//2 109//2
f 119//2 118//2 108//2
f 118//2 117//2 107//2
f 75//7 115//7 101//7
f 115//7 114//7 102//7
f 114//7 113//7 103//7
f 98//49 110//49 74//49
f 98//50 99//50 111//50
f 99//51 100//51 112//51
f 70//2 109//2 115//2
f 109//2 108//2 114//2
f 108//2 107//2 113//2
f 67//2 104//2 119//2
f 104//2 105//2 118//2
f 105//2 106//2 117//2
f 125//21 126//21 124//21
f 134//52 132//52 128//52
f 133//53 129//53 128//53
f 131//54 134//54 130//54
f 129//55 133//55 89//55
f 68//56 127//56 130//56
f 71//57 128//57 129//57
f 83//56 130//56 128//56
f 131//58 127//58 68//58
f 76//29 86//29 105//29
f 93//59 92//59 122//59
f 92//60 95//60 94//60
f 92//61 96//61 97//61
f 80//62 96//62 92//62
f 101//14 125//14 85//14
f 101//14 102//14 126//14
f 102//14 103//14 120//14
f 126//21 120//21 116//21
f 121//34 123//34 98//34
f 123//34 124//34 99//34
f 124//34 116//34 100//34
f 85//21 125//21 123//21
f 12//63 80//63 1//63
f 45//2 13//2 34//2
f 16//64 18//64 4//64
f 9//65 44//65 2//65
f 19//5 15//5 61//5
f 41//2 7//2 35//2
f 2//66 28//66 6//66
f 31//7 4//7 41//7
f 18//8 17//8 60//8
f 16//41 48//41 9//41
f 6//67 11//67 2//67
f 1//68 8//68 12//68
f 17//12 19//12 59//12
f 35//2 5//2 45//2
f 14//69 8//69 19//69
f 4//14 31//14 16//14
f 10//70 17//70 11//70
f 10//71 14//71 17//71
f 9//72 11//72 16//72
f 70//2 37//2 81//2
f 37//2 36//2 47//2
f 36//2 35//2 46//2
f 66//7 29//7 75//7
f 29//7 30//7 43//7
f 30//7 31//7 42//7
f 62//73 74//73 26//73
f 27//50 26//50 39//50
f 28//51 27//51 40//51
f 75//2 43//2 70//2
f 43//2 42//2 37//2
f 42//2 41//2 36//2
f 81//2 47//2 67//2
f 47//2 46//2 32//2
f 46//2 45//2 33//2
f 53//21 52//21 51//21
f 59//74 61//74 55//74
f 59//75 55//75 60//75
f 61//76 58//76 57//76
f 7//25 18//25 56//25
f 54//26 3//26 57//26
f 55//27 5//27 56//27
f 57//26 13//26 55//26
f 15//28 3//28 58//28
f 63//29 8//29 1//29
f 34//29 3//29 15//29
f 15//29 33//29 34//29
f 8//29 67//29 32//29
f 67//29 8//29 63//29
f 8//29 33//29 15//29
f 20//30 49//30 93//30
f 23//77 21//77 22//77
f 24//78 21//78 25//78
f 93//79 21//79 80//79
f 66//14 85//14 29//14
f 30//14 29//14 53//14
f 31//14 30//14 48//14
f 48//21 53//21 44//21
f 50//34 121//34 26//34
f 51//34 50//34 27//34
f 44//34 51//34 28//34
f 52//21 85//21 50//21
f 63//80 80//80 64//80
f 117//2 106//2 83//2
f 73//81 89//81 69//81
f 100//82 116//82 65//82
f 90//38 134//38 86//38
f 113//2 107//2 73//2
f 112//83 100//83 72//83
f 103//7 113//7 69//7
f 89//40 133//40 88//40
f 116//84 120//84 77//84
f 72//85 65//85 79//85
f 64//86 82//86 76//86
f 88//44 132//44 90//44
f 107//2 117//2 71//2
f 86//87 76//87 90//87
f 120//14 103//14 87//14
f 78//88 79//88 88//88
f 90//89 84//89 88//89
f 89//90 79//90 87//90
f 70//2 81//2 109//2
f 109//2 119//2 108//2
f 108//2 118//2 107//2
f 66//7 75//7 101//7
f 101//7 115//7 102//7
f 102//7 114//7 103//7
f 62//73 98//73 74//73
f 110//91 98//91 111//91
f 111//92 99//92 112//92
f 75//2 70//2 115//2
f 115//2 109//2 114//2
f 114//2 108//2 113//2
f 81//2 67//2 119//2
f 119//2 104//2 118//2
f 118//2 105//2 117//2
f 123//21 125//21 124//21
f 130//93 134//93 128//93
f 132//94 133//94 128//94
f 127//95 131//95 130//95
f 73//55 129//55 89//55
f 83//56 68//56 130//56
f 73//57 71//57 129//57
f 71//56 83//56 128//56
f 86//58 131//58 68//58
f 76//29 63//29 64//29
f 76//29 104//29 67//29
f 86//29 106//29 105//29
f 106//29 86//29 68//29
f 67//29 63//29 76//29
f 76//29 105//29 104//29
f 91//59 93//59 122//59
f 122//96 92//96 94//96
f 95//97 92//97 97//97
f 93//98 80//98 92//98
f 66//14 101//14 85//14
f 125//14 101//14 126//14
f 126//14 102//14 120//14
f 124//21 126//21 116//21
f 62//34 121//34 98//34
f 98//34 123//34 99//34
f 99//34 124//34 100//34
f 121//21 85//21 123//21
